# xmcd CD database file
#
# Track frame offsets:
#	150
#	13067
#	24258
#	34721
#	45717
#	56760
#	66911
#	79890
#	89256
#	100427
#
# Disc length: 1445 seconds
#
# Revision: 0
# Processed by: cddbd v1.5.1PL2 Copyright (c) Steve Scherf et al.
# Submitted via: CDex 1.70beta2
#
DISCID=7d05a30a
DTITLE=Various Artist - That's Country - 50's Classics
DYEAR=2004
DGENRE=Country
TTITLE0=Pee Wee King - Slow Poke
TTITLE1=Carl Smith - Are You Teasin' Me?
TTITLE2=Hank Locklin - Wake Up Irene
TTITLE3=The Carlisles - No Help Wanted
TTITLE4=Stonewall Jackson - Waterloo
TTITLE5=Faron Young - Live Fast, Love Hard, Die Young
TTITLE6=Bobby Helms - My Special Angel
TTITLE7=Louvin Brothers - I Don't Believe You've Met My Baby
TTITLE8=Ray Price - Crazy Arms
TTITLE9=Don Gibson - Blue Blue Me
EXTD=YEAR: 2004
EXTT0=
EXTT1=
EXTT2=
EXTT3=
EXTT4=
EXTT5=
EXTT6=
EXTT7=
EXTT8=
EXTT9=
PLAYORDER=
